<?xml version="1.0" encoding="utf-8"?>
<!-- Generator: Adobe Illustrator 16.0.0, SVG Export Plug-In . SVG Version: 6.00 Build 0)  -->
<!DOCTYPE svg PUBLIC "-//W3C//DTD SVG 1.1//EN" "http://www.w3.org/Graphics/SVG/1.1/DTD/svg11.dtd">
<svg version="1.1" id="Layer_1" xmlns="http://www.w3.org/2000/svg" xmlns:xlink="http://www.w3.org/1999/xlink" x="0px" y="0px"
	 width="1109px" height="380px" viewBox="0 0 1109 380" enable-background="new 0 0 1109 380" xml:space="preserve">
<g id="_x23_7a8591ff">
	<path fill="#7A8591" d="M43.05,28.04c62.011-0.13,124.03,0.05,186.04-0.08c2.16-0.03,4.58,0.11,5.971,2.03
		c24.01,27.64,48.02,55.3,72.05,82.93c2.25,2.7,5.07,5.08,6.57,8.32c0.68,3.88,0.279,7.85,0.34,11.77
		c-0.08,71.311,0.05,142.631-0.061,213.95c-90.31,0.07-180.609,0.07-270.92-0.01C42.97,240.65,42.97,134.35,43.05,28.04
		 M61.09,46.09C60.89,90.06,61.07,134.03,61.01,178c0.06,50.3-0.12,100.609,0.09,150.91c78.26,0.14,156.54,0.14,234.81,0
		c0.22-65.67-0.02-131.34,0.12-197c0.14-4.3-2.32-8.75-6.3-10.5c-5.181-0.97-10.49-0.29-15.73-0.41
		c-13.97-0.08-27.939,0.16-41.91-0.09c-0.239-21-0.01-42.01-0.06-63.01c0.16-4.67-3.23-8.48-6.74-11.1
		c-3.54-1.46-7.56-0.7-11.3-0.85C163.03,46.15,112.06,45.85,61.09,46.09z"/>
</g>
<g id="_x23_ffffffff">
	<path fill="#FFFFFF" d="M61.09,46.09c50.971-0.24,101.94,0.06,152.9-0.14c3.74,0.15,7.76-0.61,11.3,0.85
		c3.51,2.62,6.9,6.43,6.74,11.1c0.05,21-0.18,42.01,0.06,63.01c13.971,0.25,27.94,0.01,41.91,0.09c5.24,0.12,10.55-0.56,15.73,0.41
		c3.979,1.75,6.439,6.2,6.3,10.5c-0.14,65.66,0.1,131.33-0.12,197c-78.27,0.14-156.55,0.14-234.81,0
		C60.89,278.609,61.07,228.3,61.01,178C61.07,134.03,60.89,90.06,61.09,46.09 M164.38,80.52c0.851,11.14,1.721,22.29,1.36,33.48
		c0.55,35.96-2.07,71.87-5.11,107.67c-0.359,2.91,1.74,5.2,3.44,7.29c4.47,4.41,7.78,11.12,14.45,12.39
		c3.54-34.32,3.8-68.879,4.22-103.35c-0.02-11.31-0.03-22.66-1.21-33.92c-0.93-9.83-7.46-17.81-13.82-24.86
		C166.6,79.65,165.49,80.09,164.38,80.52 M77.08,147.09c-0.17,15.6-0.17,31.22,0.01,46.83c26.91,0.15,53.83,0.17,80.75-0.01
		c1-15.59,2.33-31.19,2.41-46.82C132.53,146.92,104.8,146.92,77.08,147.09 M187.39,147.21c0.27,15.57-0.431,31.13-0.54,46.69
		c31.02,0.189,62.05,0.17,93.06,0.01c0.18-15.6,0.18-31.22,0.01-46.83c-8.31-0.27-16.609-0.02-24.92-0.09
		C232.47,147.15,209.92,146.68,187.39,147.21 M77.1,206.09c-0.141,15.61-0.141,31.21,0,46.82c8.97,0.25,17.949-0.061,26.92,0.18
		c2.55-0.18,5.58,0.4,7.64-1.49c2.58-1.859,4.75-5.17,8.3-4.83c4.5,0.41,6.16,6.561,10.95,6.211c27.04,0.08,54.1-0.131,81.14,0.09
		c2.301-0.131,4.86,0.14,6.86-1.24c5.16-3.53,7.771-9.54,12.43-13.57c4.03-3.039,9.141,0.34,11.49,3.9
		c2.48,3.27,0.07,7.34-0.75,10.779c12.61,0.061,25.22,0.141,37.82-0.039c0.14-15.601,0.14-31.211,0.01-46.811
		c-31.26-0.119-62.52-0.13-93.78,0.01c-0.63,10.621-1,21.28-2.159,31.86c-0.391,2.261-0.62,4.88-2.44,6.511
		c-2.81,2.129-7.06,2.049-9.79-0.191c-4.09-3.229-7.32-7.369-10.76-11.239c-2.561-3.05-5.58-6.41-5.38-10.67
		c0.189-5.42,1.04-10.81,1.27-16.229C130.28,205.9,103.68,205.99,77.1,206.09 M234.37,242.17c-3.21,3.23-5.52,7.23-8.8,10.4
		c-14.021,13.83-33.58,21.479-53.15,22.09c-14.029,0.41-28.479-2.85-40.1-10.939c-5.04-3.41-8.771-8.301-13.23-12.361
		c-1.409,1.551-2.819,3.121-4.22,4.69c8.03,15.921,22.73,28.88,40.39,32.66c17.44,3.71,36.28,1.06,51.931-7.53
		c14.25-7.81,25.149-20.789,32.2-35.279C237.84,244.59,236.69,242.01,234.37,242.17 M77.07,266.07c-0.14,15.619-0.14,31.24,0,46.859
		c67.62,0.13,135.24,0.12,202.86,0c0.14-15.619,0.14-31.24,0-46.859c-14.67-0.16-29.351-0.09-44.021-0.07
		c-3.53-0.311-5.689,2.79-7.86,5.04c-16.34,18.229-42.06,26.431-66.09,23.87c-14.88-1.6-29.239-8.391-39.39-19.471
		c-2.84-2.85-4.89-6.43-7.99-9c-2.8-0.739-5.729-0.489-8.58-0.52C96.36,266.15,86.71,265.811,77.07,266.07 M148.64,266.3
		c14.029,4.671,29.659,4.37,43.72,0.011c-7.11-0.561-14.24-0.281-21.36-0.311C163.54,266.05,156.08,265.73,148.64,266.3z"/>
</g>
<g id="_x23_4d5361ff">
	<path fill="#4D5361" d="M614.341,104.35c7.72-1.78,18.04-0.41,21.649,7.67c3.38,7.92,2.71,19.79-5.92,24.05
		c-8.18,3.91-20.76,3.09-25-6.11C601.04,121.02,603.51,106.94,614.341,104.35z"/>
	<path fill="#4D5361" d="M933.341,104.4c7.739-1.85,18.109-0.54,21.84,7.52c3.479,8,2.79,20.07-6.08,24.26
		c-8.021,3.67-20.12,3.01-24.55-5.74C920.23,121.52,922.49,107.22,933.341,104.4z"/>
	<path fill="#4D5361" d="M431.56,106.41c18.05-0.3,36.1-0.17,54.15-0.06c13.619,46.49,26.81,93.121,40.27,139.66
		c2.38,8.961,5.57,17.721,7.29,26.85c-11.59,0.201-23.2,0.351-34.78-0.08c-4.3-15.76-8.22-31.629-12.84-47.289
		c-18.15-0.07-36.31,0.029-54.46-0.051c-5,15.65-8.5,31.75-13.27,47.471c-11.32,0.109-22.65,0.311-33.961-0.131
		c4.48-17.489,9.9-34.719,14.74-52.119C409.68,182.59,420.65,144.51,431.56,106.41 M455.62,134.33
		c-5.52,20.26-11.12,40.51-16.409,60.83c12.649,0.16,25.319,0.24,37.979-0.04c-4.92-20.34-10.6-40.49-15.89-60.74
		C459.4,134.35,457.51,134.34,455.62,134.33z"/>
	<path fill="#4D5361" d="M543.16,106.32c10.011-0.12,20.021-0.1,30.03-0.02c0.67,16.89,0.09,33.8,0.29,50.7
		c0,26.68-0.01,53.359-0.01,80.04c0.189,4.17,0.49,9.739,4.899,11.69c4.73,1.439,9.73,0.22,14.561,0.049
		c0.109,8.311,0.25,16.621-0.12,24.921c-10.521,1.989-21.66,2.85-32-0.46c-6.311-1.971-11.65-6.721-14.23-12.82
		c-3.56-7.96-3.63-16.87-3.6-25.42C543.14,192.1,542.77,149.2,543.16,106.32z"/>
	<path fill="#4D5361" d="M794.97,106.31c10.02-0.1,20.04-0.1,30.06,0c0.58,17.89,0,35.8,0.271,53.69
		c7.14-3.54,14.41-7.24,22.449-8.16c9.381-1.14,19.181-0.99,28.171,2.21c8.439,3.1,15.619,9.59,19.229,17.87
		c4.07,9.1,3.76,19.32,3.86,29.08c-0.141,23.95,0.22,47.9-0.17,71.84c-10.16,0.27-20.33,0.311-30.48-0.02
		c-0.26-23.6,0.01-47.2-0.12-70.801c-0.229-5.789-0.33-12.29-4.359-16.899c-4.431-4.99-11.591-5.83-17.881-5.66
		c-7.279,0.09-14.13,2.84-20.51,6.1c-0.689,29.081,0.221,58.2-0.439,87.29c-10.03,0.271-20.07,0.271-30.101,0
		c-0.5-28.27-0.06-56.57-0.21-84.85C794.89,160.77,794.43,133.53,794.97,106.31z"/>
	<path fill="#4D5361" d="M654.08,167.02c8.12-5.86,16.66-11.13,25.141-16.45c5.3,5.17,8.58,11.86,11.979,18.32
		c6.13-7.8,14.2-14.59,24.19-16.52c12.46-2.32,26.18-1.71,37.31,4.93c9.8,5.66,16.41,15.65,19.721,26.29
		c4.1,12.37,3.84,25.57,3.43,38.42c-0.98,16.29-6.68,33.5-19.95,43.87c-11.66,9.5-27.84,11.229-42.189,8.42
		c-6.61-1.25-12.29-5.06-17.511-9.1c-0.01,18.29,0.28,36.6-0.109,54.89c-10.11,0.32-20.23,0.271-30.33,0.03
		c-0.561-34.03-0.07-68.08-0.24-102.12c-0.23-11.38,1.08-23.09-2.5-34.11C661.18,177.72,657.39,172.45,654.08,167.02 M714.37,178.39
		c-11.84,3.3-17.739,16.18-18.01,27.629c-0.07,11.451-1.649,24.271,5.5,34.131c6.73,9.949,21.42,12.029,31.5,6.25
		c8.09-5.17,10.36-15.461,10.98-24.4c0.319-9.46,0.67-19.17-2.03-28.35c-1.92-6.48-6.24-12.811-12.86-15.101
		C724.591,177,719.27,177.11,714.37,178.39z"/>
	<path fill="#4D5361" d="M986.18,155.3c16.99-3.61,34.54-5.18,51.85-3.31c10.601,1.27,21.69,4.75,29.011,12.94
		c6.55,7.3,8.6,17.47,8.709,27.02c0.011,12.34-0.039,24.69-0.029,37.03c0.029,6.89,0.689,13.85,2.95,20.39
		c1.729,5.14,4.699,9.72,7.199,14.5c-8.689,4.62-17.43,9.22-26.479,13.11c-3.95-5.431-6.79-11.541-9.03-17.84
		c-4.229,4.859-8.729,9.789-14.77,12.369c-8.9,4-18.99,4.49-28.561,3.51c-9.569-1.01-19.26-4.979-25.33-12.689
		c-6.58-8.18-8.3-19.189-7.47-29.4c0.62-8.66,3.54-17.64,10.13-23.6c7.08-6.46,16.51-9.52,25.75-11.28
		c11.67-2.25,23.59-2.44,35.431-2.75c-0.141-3.63,0.01-7.59-2.15-10.72c-2.73-4.15-7.811-5.76-12.45-6.57
		c-14.95-2.2-30,0.3-44.82,2.26C985.91,171.95,985.841,163.62,986.18,155.3 M1018.66,220.68c-4.649,1.311-9.729,3.26-12.239,7.67
		c-2.29,4.471-2.65,10.101-0.421,14.67c2.261,4.42,7.351,6.44,12.07,6.83c8.38,0.78,17.8-1.75,22.92-8.85
		c4.87-6.49,4.78-14.971,4.58-22.689C1036.56,218.13,1027.43,218.5,1018.66,220.68z"/>
	<path fill="#4D5361" d="M591.881,153.88c15.26-0.2,30.54-0.35,45.8,0.09c0.06,39.61,0.149,79.23-0.04,118.85
		c-10.15,0.33-20.33,0.289-30.48,0.02c-0.439-30.99,0.07-62-0.239-93c-4.971-0.08-9.95-0.12-14.91-0.18
		C591.51,171.07,591.66,162.47,591.881,153.88z"/>
	<path fill="#4D5361" d="M911.091,153.9c15.27-0.28,30.55-0.27,45.819,0c0.11,39.64,0.24,79.3-0.069,118.94
		c-10.16,0.27-20.33,0.311-30.48-0.02c-0.33-30.99,0.15-61.99-0.22-92.97c-4.99-0.09-9.98-0.13-14.96-0.21
		C910.83,171.07,910.94,162.48,911.091,153.9z"/>
</g>
<g id="_x23_ffb553ff">
	<path fill="#FFB553" d="M77.08,147.09c27.72-0.17,55.45-0.17,83.17,0c-0.08,15.63-1.41,31.23-2.41,46.82
		c-26.92,0.18-53.84,0.16-80.75,0.01C76.91,178.31,76.91,162.69,77.08,147.09z"/>
	<path fill="#FFB553" d="M187.39,147.21c22.529-0.53,45.08-0.06,67.609-0.22c8.311,0.07,16.61-0.18,24.92,0.09
		c0.17,15.61,0.17,31.23-0.01,46.83c-31.01,0.16-62.04,0.18-93.06-0.01C186.96,178.34,187.66,162.78,187.39,147.21z"/>
</g>
<g id="_x23_f33e6fff">
	<path fill="#F33E6F" d="M77.1,206.09c26.58-0.1,53.18-0.189,79.77,0.051c-0.229,5.42-1.08,10.81-1.27,16.229
		c-0.2,4.26,2.819,7.62,5.38,10.67c3.439,3.87,6.67,8.01,10.76,11.239c2.73,2.24,6.98,2.32,9.79,0.191
		c1.82-1.631,2.05-4.25,2.44-6.511c1.159-10.58,1.529-21.239,2.159-31.86c31.261-0.14,62.521-0.129,93.78-0.01
		c0.13,15.6,0.13,31.21-0.01,46.811c-12.601,0.18-25.21,0.1-37.82,0.039c0.82-3.439,3.23-7.51,0.75-10.779
		c-2.35-3.561-7.46-6.939-11.49-3.9c-4.659,4.03-7.27,10.04-12.43,13.57c-2,1.38-4.56,1.109-6.86,1.24
		c-27.04-0.221-54.1-0.01-81.14-0.09c-4.79,0.35-6.45-5.801-10.95-6.211c-3.55-0.34-5.72,2.971-8.3,4.83
		c-2.06,1.891-5.09,1.311-7.64,1.49c-8.971-0.24-17.95,0.07-26.92-0.18C76.96,237.3,76.96,221.7,77.1,206.09z"/>
</g>
<g id="_x23_2d91eaff">
	<path fill="#2D91EA" d="M77.07,266.07c9.64-0.26,19.29,0.08,28.93-0.15c2.851,0.03,5.78-0.22,8.58,0.52
		c3.101,2.57,5.15,6.15,7.99,9c10.15,11.08,24.51,17.871,39.39,19.471c24.03,2.561,49.75-5.641,66.09-23.87
		c2.171-2.25,4.33-5.351,7.86-5.04c14.67-0.02,29.351-0.09,44.021,0.07c0.14,15.619,0.14,31.24,0,46.859
		c-67.62,0.12-135.24,0.13-202.86,0C76.93,297.311,76.93,281.689,77.07,266.07z"/>
	<path fill="#2D91EA" d="M148.64,266.3c7.439-0.569,14.899-0.25,22.359-0.3c7.12,0.029,14.25-0.25,21.36,0.311
		C178.3,270.67,162.67,270.971,148.64,266.3z"/>
</g>
<g>
	<path fill="#4D5361" d="M170.916,294.344c-5.572,0-11.12-0.579-16.489-1.722c-17.966-3.846-34.087-16.844-43.129-34.771
		c-0.74-1.468-0.507-3.238,0.587-4.465c1.408-1.578,2.827-3.157,4.244-4.718c0.714-0.785,1.711-1.255,2.771-1.305
		c0.063-0.003,0.126-0.005,0.189-0.005c0.994,0,1.955,0.37,2.693,1.042c1.696,1.544,3.273,3.181,4.798,4.764
		c2.621,2.721,5.096,5.291,7.981,7.243c9.681,6.739,21.95,10.286,35.523,10.286c0.001,0,0.002,0,0.003,0
		c0.74,0,1.478-0.011,2.215-0.032c19.18-0.599,37.574-8.23,50.458-20.939c1.521-1.471,2.834-3.174,4.225-4.976
		c1.389-1.802,2.826-3.664,4.547-5.396c0.684-0.688,1.594-1.104,2.562-1.171c0.162-0.012,0.323-0.017,0.48-0.017
		c3.368,0,5.359,2.348,6.548,3.75c0.315,0.372,0.642,0.757,0.849,0.933c1.397,1.181,1.815,3.159,1.015,4.805
		c-8.019,16.479-19.732,29.286-33.875,37.037C197.605,291.004,184.396,294.343,170.916,294.344z"/>
	<path fill="#FFFFFF" d="M234.575,242.163c2.185,0,3.311,2.466,4.815,3.737c-7.051,14.49-17.95,27.47-32.2,35.279
		c-11.041,6.06-23.67,9.164-36.274,9.164c-5.263,0-10.519-0.541-15.656-1.634c-17.659-3.78-32.359-16.739-40.39-32.66
		c1.4-1.569,2.811-3.14,4.22-4.69c4.46,4.061,8.19,8.951,13.23,12.361c10.976,7.642,24.479,10.974,37.765,10.974
		c0.78,0,1.558-0.012,2.335-0.034c19.57-0.61,39.13-8.26,53.15-22.09c3.28-3.17,5.59-7.17,8.8-10.4
		C234.439,242.165,234.508,242.163,234.575,242.163 M234.575,234.163c-0.249,0-0.501,0.008-0.757,0.025
		c-1.935,0.134-3.756,0.967-5.123,2.343c-1.898,1.91-3.413,3.874-4.877,5.772c-1.298,1.684-2.525,3.274-3.807,4.514
		c-0.02,0.02-0.04,0.038-0.059,0.058c-12.174,12.009-29.59,19.222-47.782,19.789c-0.683,0.02-1.39,0.03-2.085,0.03
		c-8.892,0-21.869-1.655-33.194-9.539c-0.029-0.021-0.058-0.04-0.088-0.061c-2.537-1.717-4.871-4.14-7.342-6.704
		c-1.57-1.63-3.193-3.314-4.986-4.947c-1.476-1.344-3.398-2.084-5.385-2.084c-0.126,0-0.252,0.003-0.379,0.009
		c-2.121,0.101-4.115,1.04-5.542,2.611c-1.425,1.568-2.852,3.156-4.268,4.744c-2.188,2.452-2.654,5.994-1.174,8.929
		c9.583,18.998,26.726,32.785,45.858,36.881c5.652,1.202,11.48,1.811,17.331,1.811c14.15,0,28.024-3.511,40.124-10.151
		c14.869-8.148,27.162-21.563,35.544-38.792c1.585-3.257,0.783-7.167-1.944-9.537c-0.103-0.109-0.311-0.354-0.465-0.537
		C242.753,237.65,239.795,234.163,234.575,234.163L234.575,234.163z"/>
</g>
<g>
	<path fill="#4D5361" d="M178.52,245.35c-0.249,0-0.5-0.023-0.748-0.07c-6.226-1.186-9.937-5.711-13.211-9.704
		c-1.13-1.378-2.198-2.68-3.301-3.768c-0.104-0.103-0.201-0.21-0.293-0.323l-0.367-0.448c-1.88-2.287-4.45-5.415-3.951-9.771
		c2.76-32.511,5.655-70.279,5.091-107.204c-0.001-0.063,0-0.126,0.001-0.19c0.348-10.805-0.496-21.857-1.313-32.545l-0.038-0.501
		c-0.134-1.759,0.899-3.397,2.543-4.035l3.33-1.3c0.47-0.182,0.959-0.27,1.444-0.27c1.111,0,2.197,0.463,2.971,1.32
		c6.628,7.347,13.788,16.111,14.833,27.163c1.188,11.339,1.208,22.876,1.227,34.034l0,0.255l-0.059,4.896
		c-0.388,32.436-0.789,65.977-4.182,98.871c-0.115,1.114-0.692,2.13-1.59,2.798C180.214,245.076,179.374,245.35,178.52,245.35z"/>
	<path fill="#FFFFFF" d="M167.71,79.22c6.36,7.05,12.891,15.03,13.82,24.86c1.18,11.26,1.19,22.61,1.21,33.92
		c-0.42,34.47-0.68,69.029-4.22,103.35c-6.67-1.27-9.98-7.979-14.45-12.39c-1.7-2.09-3.8-4.38-3.44-7.29
		c3.04-35.8,5.66-71.71,5.11-107.67c0.36-11.19-0.51-22.34-1.36-33.48C165.49,80.09,166.6,79.65,167.71,79.22 M167.708,71.22
		c-0.969,0-1.947,0.176-2.888,0.541c-0.567,0.22-1.135,0.442-1.703,0.665c-0.542,0.213-1.085,0.425-1.628,0.636
		c-3.289,1.274-5.355,4.552-5.086,8.068l0.038,0.502c0.845,11.069,1.644,21.523,1.303,32.112c-0.004,0.126-0.005,0.253-0.003,0.379
		c0.562,36.718-2.322,74.348-5.072,106.749c-0.663,6.007,2.777,10.193,4.841,12.705l0.354,0.433
		c0.184,0.226,0.379,0.441,0.587,0.646c0.953,0.94,1.955,2.163,3.017,3.458c3.336,4.068,7.905,9.64,15.556,11.097
		c0.497,0.094,0.998,0.141,1.496,0.141c1.708,0,3.386-0.547,4.777-1.583c1.797-1.338,2.951-3.368,3.181-5.596
		c3.412-33.076,3.814-66.709,4.203-99.235l0.058-4.838c0-0.037,0-0.074,0-0.111l0-0.255c-0.02-11.246-0.04-22.876-1.249-34.447
		c-1.174-12.249-8.792-21.609-15.841-29.422C172.102,72.146,169.929,71.22,167.708,71.22L167.708,71.22z"/>
</g>
</svg>
